<?xml version="1.0" encoding="UTF-8" standalone="no"?>
<!-- Created with Inkscape (http://www.inkscape.org/) -->

<svg
   version="1.1"
   id="svg2"
   width="128"
   height="128"
   viewBox="0 0 455.11112 455.11112"
   sodipodi:docname="gdtfa.svg"
   inkscape:version="1.2.1 (9c6d41e410, 2022-07-14)"
   xmlns:inkscape="http://www.inkscape.org/namespaces/inkscape"
   xmlns:sodipodi="http://sodipodi.sourceforge.net/DTD/sodipodi-0.dtd"
   xmlns="http://www.w3.org/2000/svg"
   xmlns:svg="http://www.w3.org/2000/svg">
  <defs
     id="defs6" />
  <sodipodi:namedview
     id="namedview4"
     pagecolor="#ffffff"
     bordercolor="#666666"
     borderopacity="1.0"
     inkscape:showpageshadow="2"
     inkscape:pageopacity="0.0"
     inkscape:pagecheckerboard="0"
     inkscape:deskcolor="#d1d1d1"
     showgrid="false"
     inkscape:zoom="4.4005914"
     inkscape:cx="-5.9082968"
     inkscape:cy="46.016543"
     inkscape:window-width="1920"
     inkscape:window-height="1035"
     inkscape:window-x="0"
     inkscape:window-y="45"
     inkscape:window-maximized="1"
     inkscape:current-layer="g10">
    <inkscape:page
       x="0"
       y="0"
       id="page8"
       width="455.11111"
       height="455.11111" />
  </sodipodi:namedview>
  <g
     id="g10"
     inkscape:groupmode="layer"
     inkscape:label="Page 1"
     transform="matrix(1.3333333,0,0,-1.3333333,-326.55335,3.728546)">
    <g
       id="g501"
       transform="matrix(12.641965,0,0,12.641949,-2851.29,-270.50309)">
      <g
         id="g487">
        <path
           d="m 258.42366,1.6628994 3.17758,5.7324905 -3.19086,2.7696681 -3.18188,-2.7696681 3.19516,-5.7324905"
           style="fill:#4d6ebe;fill-opacity:1;fill-rule:nonzero;stroke:none;stroke-width:0.0999998"
           id="path30" />
        <g
           id="g428"
           transform="translate(21.074373)">
          <path
             d="m 225.27446,-0.83895831 h 10.22856 L 245.03694,16.361699 Z M 235.733,-1.6198846 h -11.50225 c -0.16282,0 -0.30846,0.1011235 -0.36547,0.2534957 -0.057,0.1526763 -0.0137,0.3245736 0.10894,0.43133775 L 246.1974,18.40702 c 0.1433,0.124324 0.35532,0.127838 0.50213,0.0089 0.1476,-0.11913 0.18781,-0.326856 0.0961,-0.492803 L 236.07466,-1.4185524 c -0.0691,-0.1243072 -0.19992,-0.2013322 -0.34166,-0.2013322"
             style="fill:#d74bad;fill-opacity:1;fill-rule:nonzero;stroke:none;stroke-width:0.0999998"
             id="path28" />
          <path
             d="m 239.17766,-0.83895831 h 10.22661 L 229.59102,16.358927 Z m 11.27226,-0.78092629 h -11.50185 c -0.14135,0 -0.27215,0.07672 -0.34088,0.2002647 L 227.82574,17.9223 c -0.0925,0.165634 -0.0523,0.373712 0.0949,0.493271 0.14643,0.119287 0.35884,0.115773 0.50214,-0.0082 L 250.7057,-0.9345524 c 0.12338,-0.1067681 0.16712,-0.2788176 0.11011,-0.4313409 -0.057,-0.1528298 -0.20304,-0.2539533 -0.36587,-0.2539533"
             style="fill:#4d6ebe;fill-opacity:1;fill-rule:nonzero;stroke:none;stroke-width:0.0999998"
             id="path32" />
        </g>
      </g>
      <path
         d="m 255.72373,7.3089024 2.69888,-4.8423607 2.68365,4.8415798 -2.69536,2.3394175 z m 2.70005,-6.0366178 c -0.14135,0 -0.27215,0.076718 -0.34088,0.2002643 l -3.19554,5.7326467 c -0.0898,0.1613391 -0.0547,0.3637549 0.0847,0.4847202 l 3.18227,2.7693562 c 0.14565,0.128149 0.36469,0.128149 0.5119,3.12e-4 l 3.19086,-2.7693948 c 0.13979,-0.1207701 0.17493,-0.3225612 0.0859,-0.4837832 l -3.17756,-5.7326388 c -0.0691,-0.1243077 -0.19952,-0.2014826 -0.34126,-0.2014826 h -3.9e-4"
         style="fill:#4d6ebe;fill-opacity:1;fill-rule:nonzero;stroke:none;stroke-width:0.0999998"
         id="path34" />
    </g>
  </g>
</svg>
